<?xml version="1.0" encoding="UTF-8" standalone="no"?>
<!DOCTYPE svg PUBLIC "-//W3C//DTD SVG 1.1//EN" "http://www.w3.org/Graphics/SVG/1.1/DTD/svg11.dtd">
<svg width="118px" height="47px" version="1.1" xmlns="http://www.w3.org/2000/svg" xmlns:xlink="http://www.w3.org/1999/xlink" xml:space="preserve" xmlns:serif="http://www.serif.com/" style="fill-rule:evenodd;clip-rule:evenodd;stroke-linejoin:round;stroke-miterlimit:2;">
    <g transform="matrix(1,0,0,1,-15.534258,-41.282039)">
        <path d="M79.765,55.677C80.084,55.617 80.409,55.561 80.738,55.511C117.26,49.944 132.205,81.867 132.928,83.197C133.363,83.997 133.067,85 132.266,85.435C131.466,85.869 130.464,85.573 130.029,84.773C129.358,83.539 115.634,54.038 82.046,58.656C84.325,62.212 84.894,65.532 84.315,68.234C83.526,71.92 80.635,74.641 76.494,75.541C69.467,77.068 65.874,74.14 65.2,70.392C64.805,68.2 65.432,65.549 67.188,63.061C68.977,60.525 71.962,58.123 76.13,56.651C70.608,51.283 63.178,49.271 55.862,48.831C43.678,48.099 31.748,51.729 28.587,52.417C27.697,52.611 26.817,52.045 26.624,51.155C26.43,50.266 26.995,49.386 27.885,49.192C31.15,48.482 43.477,44.781 56.06,45.537C64.739,46.059 73.512,48.697 79.73,55.638C79.742,55.651 79.754,55.664 79.765,55.677ZM78.519,59.354C73.652,60.716 70.46,63.476 69.09,66.301C68.212,68.112 68.085,69.921 69.024,71.159C70.108,72.589 72.384,73.057 75.793,72.316C78.551,71.716 80.562,69.998 81.089,67.543C81.584,65.232 80.815,62.411 78.519,59.354Z"/>
        <path d="M77.79,55.573C82.626,54.775 89.13,54.983 97.513,56.951C109.402,59.742 118.74,68.271 124.457,75.267C128.363,80.046 130.577,84.145 130.897,85.267C131.147,86.143 130.638,87.057 129.762,87.306C128.887,87.556 127.973,87.048 127.723,86.172C127.439,85.175 125.371,81.6 121.902,77.355C116.557,70.815 107.874,62.773 96.759,60.164C89.579,58.478 83.896,58.128 79.551,58.646C81.107,62.136 81.33,65.727 80.576,68.415C79.949,70.647 78.678,72.358 77.008,73.243C75.294,74.151 73.11,74.264 70.601,72.995C66.081,70.708 64.536,66.209 66.541,62.246C67.649,60.055 69.926,57.967 73.629,56.631C73.838,56.555 74.053,56.482 74.272,56.411C69.84,51.372 60.815,47.919 45.396,51.305C44.588,51.482 44.584,51.451 32.749,54.589C31.868,54.823 30.964,54.297 30.731,53.417C30.497,52.537 31.023,51.633 31.903,51.399C43.867,48.227 43.871,48.261 44.688,48.082C62.986,44.063 73.133,49.053 77.79,55.573ZM76.237,59.27C75.714,59.41 75.219,59.565 74.75,59.735C72.042,60.712 70.296,62.134 69.486,63.735C68.294,66.091 69.403,68.691 72.091,70.051C73.495,70.761 74.698,70.809 75.622,70.236C77.214,69.247 77.894,66.863 77.678,64.19C77.549,62.587 77.085,60.9 76.237,59.27Z"/>
        <path d="M49.69,41.303C50.589,41.159 51.436,41.772 51.58,42.671C51.724,43.57 51.111,44.417 50.212,44.561C42.277,45.833 42.312,45.844 32.742,48.272C28.696,49.298 25.971,49.923 24.046,50.342C28.121,51.089 35.488,52.391 50.022,55.078C50.917,55.244 51.51,56.105 51.344,57.001C51.179,57.896 50.317,58.489 49.422,58.323C19.554,52.802 19.526,53.01 16.653,52.033C16.015,51.816 15.573,51.233 15.537,50.561C15.5,49.889 15.876,49.261 16.486,48.976C19.057,47.774 19.205,48.301 31.93,45.073C41.659,42.605 41.624,42.596 49.69,41.303Z"/>
    </g>
</svg>
